<?xml version="1.0" encoding="UTF-8" standalone="no"?>
<svg
   style="clip-rule:evenodd;fill-rule:evenodd;stroke-linejoin:round;stroke-miterlimit:2"
   viewBox="0 0 64 64"
   version="1.1"
   id="svg6"
   sodipodi:docname="application-x-ba2.svg"
   xml:space="preserve"
   inkscape:version="1.4 (e7c3feb100, 2024-10-09)"
   xmlns:inkscape="http://www.inkscape.org/namespaces/inkscape"
   xmlns:sodipodi="http://sodipodi.sourceforge.net/DTD/sodipodi-0.dtd"
   xmlns="http://www.w3.org/2000/svg"
   xmlns:svg="http://www.w3.org/2000/svg"><sodipodi:namedview
     id="namedview6"
     pagecolor="#ffffff"
     bordercolor="#000000"
     borderopacity="0.25"
     inkscape:showpageshadow="2"
     inkscape:pageopacity="0.0"
     inkscape:pagecheckerboard="0"
     inkscape:deskcolor="#d1d1d1"
     inkscape:zoom="16"
     inkscape:cx="22.9375"
     inkscape:cy="32.90625"
     inkscape:window-width="2560"
     inkscape:window-height="1367"
     inkscape:window-x="0"
     inkscape:window-y="0"
     inkscape:window-maximized="1"
     inkscape:current-layer="svg6" /><path
     d="m54 3.146c0-0.926-0.751-1.677-1.677-1.677h-34.705c-2.02 0-3.958 0.803-5.387 2.231-1.428 1.429-2.231 3.367-2.231 5.387v45.295c0 2.02 0.803 3.958 2.231 5.387 1.429 1.428 3.367 2.231 5.387 2.231h28.764c2.02 0 3.958-0.803 5.387-2.231 1.428-1.429 2.231-3.367 2.231-5.387v-51.236z"
     style="fill:url(#_Linear1)"
     id="path1" /><path
     d="m 31.661599,14.221474 c -3.2052,0 -6.4116,1.2276 -8.868,3.684 -4.9116,4.9128 -4.9116,12.8232 0,17.736 4.9128,4.9116 12.8232,4.9116 17.736,0 4.9128,-4.9128 4.9128,-12.8232 0,-17.736 -2.4564,-2.4564 -5.6628,-3.684 -8.868,-3.684 z"
     style="fill:#fbff41;fill-rule:nonzero;stroke-width:1.2"
     id="path4" /><defs
     id="defs6"><linearGradient
       id="_Linear1"
       x2="1"
       gradientTransform="matrix(3.03829e-15,-49.619,49.619,3.03829e-15,104.99,51.088)"
       gradientUnits="userSpaceOnUse"><stop
         style="stop-color:#454545"
         offset="0"
         id="stop5" /><stop
         style="stop-color:#696969"
         offset="1"
         id="stop6" /></linearGradient></defs><g
     style="clip-rule:evenodd;fill-rule:evenodd;image-rendering:optimizeQuality;shape-rendering:geometricPrecision;text-rendering:geometricPrecision"
     id="g6"
     transform="matrix(0.04935652,0,0,0.04935652,19.01441,14.26441)"><g
       id="g1"><path
         style="opacity:0.977"
         fill="#000000"
         d="m 233.5,-0.5 c 14.667,0 29.333,0 44,0 100.305,12.4821 171.805,64.4821 214.5,156 10.297,25.187 16.797,51.187 19.5,78 0,14.667 0,29.333 0,44 -12.482,100.305 -64.482,171.805 -156,214.5 -25.187,10.297 -51.187,16.797 -78,19.5 -14.667,0 -29.333,0 -44,0 C 133.195,499.018 61.6947,447.018 19,355.5 8.70332,330.313 2.20332,304.313 -0.5,277.5 c 0,-14.667 0,-29.333 0,-44 C 11.9821,133.195 63.9821,61.6947 155.5,19 180.687,8.70332 206.687,2.20332 233.5,-0.5 Z m 4,50 c 87.263,-3.296 153.43,32.0373 198.5,106 29.862,57.347 33.529,116.347 11,177 C 413.359,407.761 355.526,450.594 273.5,461 185.216,464.786 118.716,428.953 74,353.5 41.3333,288.167 41.3333,222.833 74,157.5 110.519,94.5138 165.019,58.5138 237.5,49.5 Z"
         id="path1-3" /></g><g
       id="g2"><path
         style="opacity:0.981"
         fill="#000000"
         d="m 158.5,101.5 c 6.343,-0.745 10.51,1.922 12.5,8 17.081,29.831 34.414,59.497 52,89 2,4 2,8 0,12 -13.663,10.648 -21.663,24.648 -24,42 -0.935,2.602 -2.768,4.102 -5.5,4.5 -39.06,0.982 -78.06,0.649 -117,-1 -2.2084,-1.836 -3.5417,-4.169 -4,-7 4.6913,-63.6 33.358,-112.767 86,-147.5 z"
         id="path2-6" /></g><g
       id="g3"><path
         style="opacity:0.981"
         fill="#000000"
         d="m 346.5,101.5 c 3.149,-0.289 6.149,0.211 9,1.5 52.47,36.438 79.637,86.605 81.5,150.5 -0.833,0.833 -1.667,1.667 -2.5,2.5 -38.916,1.654 -77.916,1.988 -117,1 -1.829,-0.273 -3.329,-1.107 -4.5,-2.5 -1.802,-9.872 -5.135,-19.206 -10,-28 -4.648,-6.646 -9.982,-12.646 -16,-18 -0.667,-2.667 -0.667,-5.333 0,-8 18.667,-32 37.333,-64 56,-96 1.145,-1.136 2.312,-2.136 3.5,-3 z"
         id="path3-7" /></g><g
       id="g4"><path
         style="opacity:0.971"
         fill="#000000"
         d="m 253.5,217.5 c 28.594,2.757 41.761,18.424 39.5,47 -6.694,22.667 -21.861,32.5 -45.5,29.5 -22.667,-6.694 -32.5,-21.861 -29.5,-45.5 4.906,-18.414 16.739,-28.747 35.5,-31 z"
         id="path4-5" /></g><g
       id="g5"><path
         style="opacity:0.982"
         fill="#000000"
         d="m 226.5,307.5 c 9.531,2.284 19.198,3.95 29,5 8.784,-0.325 17.284,-1.991 25.5,-5 1.967,0.042 3.801,0.542 5.5,1.5 20.113,33.56 39.447,67.56 58,102 -0.432,3.434 -2.099,6.1 -5,8 -56.517,26.309 -112.85,25.976 -169,-1 -3.458,-3.324 -4.291,-7.157 -2.5,-11.5 18,-31.333 36,-62.667 54,-94 1.059,-2.159 2.559,-3.826 4.5,-5 z"
         id="path5-3" /></g></g><text
     xml:space="preserve"
     style="font-style:normal;font-variant:normal;font-weight:normal;font-stretch:normal;font-size:13.3333px;font-family:'Droid Sans';-inkscape-font-specification:'Droid Sans';text-align:start;writing-mode:lr-tb;direction:ltr;text-anchor:start;fill:#000000"
     x="51.53125"
     y="46.125"
     id="text7"><tspan
       sodipodi:role="line"
       id="tspan7"
       x="51.53125"
       y="46.125" /></text><text
     xml:space="preserve"
     style="font-style:normal;font-variant:normal;font-weight:normal;font-stretch:normal;font-size:8.64003px;font-family:Sans;-inkscape-font-specification:'Sans, Normal';font-variant-ligatures:normal;font-variant-caps:normal;font-variant-numeric:normal;font-variant-east-asian:normal;text-align:start;writing-mode:lr-tb;direction:ltr;text-anchor:start;fill:#ffffff;fill-opacity:1;stroke-width:0.81"
     x="24.148502"
     y="59.896248"
     id="text8"><tspan
       sodipodi:role="line"
       id="tspan8"
       x="24.148502"
       y="59.896248"
       style="stroke-width:0.81">ba2</tspan></text></svg>
